<?xml version="1.0" standalone="no"?><!DOCTYPE svg PUBLIC "-//W3C//DTD SVG 1.1//EN" "http://www.w3.org/Graphics/SVG/1.1/DTD/svg11.dtd"><svg t="1647437405011" class="icon" viewBox="0 0 1024 1024" version="1.1" xmlns="http://www.w3.org/2000/svg" p-id="4128" width="20" height="20" xmlns:xlink="http://www.w3.org/1999/xlink"><defs><style type="text/css"></style></defs><path d="M520.137 917.046L650.896 809.52a53.593 53.593 0 0 0 18.872-32.837l25.295-157.1c14.853-11.903 29.144-23.598 42.575-34.655C867.583 478.079 945.683 326.387 957.547 157.8c2.3-29.625-18.808-53.414-46.761-56.929-167.75-20.909-331.671 26.404-461.615 133.229-16.006 13.18-31.613 26.026-47.303 39.323l-150.175-5.241c-13.097-0.438-25.841 3.892-35.904 12.175L85.03 387.895c-12.428 10.211-19.541 25.295-19.541 41.383 0 2.585 0.188 5.177 0.565 7.775 2.782 18.525 15.146 34.437 32.303 41.632l105.718 44.135c-17.136 60.127-6.989 116.658 29.625 166.442a234.242 234.242 0 0 0 7.635 9.823c30.65 37.263 84.149 78.11 168.463 70.35l23.873 116.94c3.683 18.266 16.924 33.515 34.562 39.772 17.596 6.246 37.493 2.763 51.908-9.098z m40.549-544.512c-0.658-41.056 32.094-74.876 73.149-75.534 41.061-0.66 74.876 32.091 75.537 73.15 0.658 41.058-32.091 74.876-73.152 75.534-41.057 0.66-74.875-32.092-75.535-73.15zM260.712 835.58a18.552 18.552 0 0 0 13.54-12.706 18.454 18.454 0 0 0-4.211-18.098L149.327 676.002c-4.574-4.846-11.327-6.898-17.789-5.391a18.549 18.549 0 0 0-13.579 12.706l-51.19 168.945a18.408 18.408 0 0 0-0.799 5.391v0.38c0.399 11.291 8.205 18.952 18.588 18.952 3.304 0 6.39-0.853 9.077-2.36L260.71 835.58z" p-id="4129" fill="#bfbfbf"></path></svg>