<?xml version="1.0" standalone="no"?><!DOCTYPE svg PUBLIC "-//W3C//DTD SVG 1.1//EN" "http://www.w3.org/Graphics/SVG/1.1/DTD/svg11.dtd"><svg t="1652670079521" class="icon" viewBox="0 0 1024 1024" version="1.1" xmlns="http://www.w3.org/2000/svg" p-id="2661" width="20" height="20" xmlns:xlink="http://www.w3.org/1999/xlink"><defs><style type="text/css"></style></defs><path d="M612.844147 292.203646 612.844147 292.203646z" p-id="2662" fill="#bfbfbf"></path><path d="M761.911659 266.109471 761.911659 266.109471z" p-id="2663" fill="#bfbfbf"></path><path d="M710.679158 241.071331c65.754254 0 119.068156-53.309812 119.068156-119.0702 0-65.751188-53.310834-119.063044-119.068156-119.063044-65.762433 0-119.074289 53.310834-119.074289 119.063044C591.597713 187.760496 644.916725 241.071331 710.679158 241.071331L710.679158 241.071331 710.679158 241.071331z" p-id="2664" fill="#bfbfbf"></path><path d="M710.679158 241.071331 710.679158 241.071331z" p-id="2665" fill="#bfbfbf"></path><path d="M906.537283 206.784454c-68.374406 95.760767-159.92228 106.848619-258.434052 48.370064-6.707302-3.979809-36.459262-20.372369-43.045933-24.287773-158.479816-94.074996-316.771529-57.184324-422.926007 91.477335-45.114043 63.233266 59.215632 123.16144 103.822615 60.669341 54.848372-76.803259 124.594702-99.032123 200.867389-74.703457-39.056923 67.790673-73.200678 135.170383-121.383662 230.90457-48.192184 95.734187-154.601215 172.183731-256.840289 112.385389-73.776233-43.112382-140.307434 62.87035-66.752018 105.853922 139.583646 81.58455 303.249584 31.486801 386.801037-74.559313 2.897195 1.546738 5.963068 2.950354 9.317231 4.121908 68.259909 23.780713 157.73456 87.087584 184.993134 109.528064 27.254484 22.437413 74.089056 136.743701 101.89047 194.175421 33.733814 69.690105 142.680189 18.933995 108.816544-51.052576-31.515425-65.160299-84.431652-195.208965-125.696741-228.114717-33.101011-26.389619-97.37191-75.500851-151.889056-103.364625 36.884538-71.437213 75.285145-142.094412 115.709904-211.540187 128.847465 39.477088 251.317831-7.029326 338.546492-129.209359C1055.481096 204.215417 951.17289 144.283154 906.537283 206.784454L906.537283 206.784454 906.537283 206.784454z" p-id="2666" fill="#bfbfbf"></path><path d="M906.537283 206.784454 906.537283 206.784454z" p-id="2667" fill="#bfbfbf"></path></svg>