<?xml version="1.0" standalone="no"?><!DOCTYPE svg PUBLIC "-//W3C//DTD SVG 1.1//EN" "http://www.w3.org/Graphics/SVG/1.1/DTD/svg11.dtd"><svg t="1639748089822" class="icon" viewBox="0 0 1024 1024" version="1.1" xmlns="http://www.w3.org/2000/svg" p-id="1362" width="22" height="22" xmlns:xlink="http://www.w3.org/1999/xlink"><defs><style type="text/css"></style></defs><path d="M798.992 96c70.4 0 127.632 56.4 128.984 126.472l0.024 2.536v573.984c0 70.4-56.4 127.632-126.472 128.984l-2.536 0.024H225.008c-70.4 0-127.632-56.4-128.984-126.472L96 798.992V225.008c0-70.4 56.4-127.632 126.472-128.984l2.536-0.024h573.984z m0 64H225.008a65.008 65.008 0 0 0-64.976 63.024l-0.032 1.984v573.984a65.008 65.008 0 0 0 63.024 64.976l1.984 0.032h573.984a65.008 65.008 0 0 0 64.976-63.024l0.032-1.984V225.008a65.008 65.008 0 0 0-63.024-64.976L798.992 160z m-262.88 136v79.992h166.072v228.28h-49.12v-25.728H536.12v156.24H485.6v-156.24H369.12v25.728H320V376h165.6V296h50.52zM485.6 423.704H369.12v107.12H485.6v-107.12z m167.464 0H536.12v107.12h116.944v-107.12z" fill="#212121" p-id="1363"></path></svg>