<?xml version="1.0" standalone="no"?><!DOCTYPE svg PUBLIC "-//W3C//DTD SVG 1.1//EN" "http://www.w3.org/Graphics/SVG/1.1/DTD/svg11.dtd"><svg t="1652929644638" class="icon" viewBox="0 0 1024 1024" version="1.1" xmlns="http://www.w3.org/2000/svg" p-id="2979" width="18" height="18" xmlns:xlink="http://www.w3.org/1999/xlink"><defs><style type="text/css"></style></defs><path d="M938.666667 512C938.666667 747.648 747.648 938.666667 512 938.666667S85.333333 747.648 85.333333 512s191.018667-426.666667 426.666667-426.666667 426.666667 191.018667 426.666667 426.666667z m-85.333334 0a341.333333 341.333333 0 1 0-682.666666 0 341.333333 341.333333 0 0 0 682.666666 0z m-643.029333-301.696a42.666667 42.666667 0 0 1 60.330667 0L813.696 753.365333a42.666667 42.666667 0 0 1-60.330667 60.330667L210.304 270.634667a42.666667 42.666667 0 0 1 0-60.330667z" fill="#ffffff" p-id="2980"></path></svg>