<?xml version="1.0" standalone="no"?><!DOCTYPE svg PUBLIC "-//W3C//DTD SVG 1.1//EN" "http://www.w3.org/Graphics/SVG/1.1/DTD/svg11.dtd"><svg t="1641869117533" class="icon" viewBox="0 0 1024 1024" version="1.1" xmlns="http://www.w3.org/2000/svg" p-id="4151" width="22" height="22" xmlns:xlink="http://www.w3.org/1999/xlink"><defs><style type="text/css"></style></defs><path d="M838.656 145.5104c21.6064 0 39.1168 17.5104 39.1168 39.1168v655.36c0 10.3424-4.096 20.3776-11.4688 27.648a39.0656 39.0656 0 0 1-27.648 11.4688H183.6032c-10.3424 0-20.3776-4.096-27.648-11.4688a39.0656 39.0656 0 0 1-11.4688-27.648v-655.36c0-21.6064 17.5104-39.1168 39.1168-39.1168H838.656m0-52.3264H183.6032c-50.4832 0.1024-91.3408 40.96-91.4432 91.4432v655.36c0.1024 50.4832 40.96 91.4432 91.4432 91.4432H838.656c50.4832-0.1024 91.4432-40.96 91.4432-91.4432v-655.36c0-50.4832-40.96-91.3408-91.4432-91.4432z m0 0" p-id="4152" fill="#212121"></path><path d="M373.248 714.3424c-6.3488 0-12.4928-2.4576-16.9984-6.7584L185.1392 545.792c-4.9152-4.7104-7.7824-11.1616-7.7824-18.0224 0-6.8608 2.7648-13.312 7.7824-18.0224L356.0448 348.16c4.8128-4.5056 11.1616-6.9632 17.7152-6.7584 6.5536 0.2048 12.8 2.9696 17.3056 7.7824 4.5056 4.8128 6.9632 11.1616 6.7584 17.7152-0.2048 6.5536-2.9696 12.8-7.7824 17.3056L238.2848 527.7696l152.064 143.7696c7.3728 6.9632 9.728 17.7152 5.9392 27.136-3.7888 9.5232-12.9024 15.6672-23.04 15.6672z m276.1728 0.1024c-10.1376 0-19.3536-6.2464-23.1424-15.6672-3.7888-9.4208-1.3312-20.2752 6.0416-27.2384L784.384 527.7696 632.5248 384.2048c-9.9328-9.4208-10.4448-25.1904-1.024-35.1232 9.4208-9.9328 25.088-10.3424 35.1232-1.024l170.9056 161.5872c5.0176 4.7104 7.7824 11.264 7.7824 18.0224 0 6.8608-2.8672 13.312-7.7824 18.0224l-171.1104 161.792c-4.608 4.5056-10.6496 6.9632-16.9984 6.9632z m-202.752 57.5488c-7.4752 0-14.5408-3.4816-19.0464-9.4208-4.5056-5.9392-5.9392-13.7216-3.9936-20.8896l123.392-440.5248c3.6864-12.5952 16.7936-19.8656 29.3888-16.2816 12.5952 3.4816 20.0704 16.5888 16.5888 29.184L469.7088 754.5856c-2.8672 10.3424-12.288 17.408-23.04 17.408z m0 0" p-id="4153" fill="#212121"></path></svg>