<?xml version="1.0" standalone="no"?><!DOCTYPE svg PUBLIC "-//W3C//DTD SVG 1.1//EN" "http://www.w3.org/Graphics/SVG/1.1/DTD/svg11.dtd"><svg class="icon" width="20px" height="20.00px" viewBox="0 0 1024 1024" version="1.1" xmlns="http://www.w3.org/2000/svg"><path d="M866.91384889 948.90666667c-64.14437149 0-146.88154851-15.45355037-129.14637483-146.71973149 10.12976185-77.21920739 129.14637483-265.13761963 129.14637483-265.13761963s122.41477518 194.77946482 129.1625563 265.13761963C1008.74669853 934.31074816 931.10676594 948.90666667 866.91384889 948.90666667z m-411.09681038-36.03670926a63.48092075 63.48092075 0 0 1-91.18403926 0L45.52931555 584.23523555c-25.30822371-25.72894777-25.30822371-67.78526037 0-93.53038961L273.48132295 256.49050851l-136.73560405-140.71630961a34.06253853 34.06253853 0 0 1 0-47.18592 31.71618816 31.71618816 0 0 1 45.56774627 0l136.75178667 140.70012814 91.16785778-93.53039075a63.48092075 63.48092075 0 0 1 91.18404039 0l319.1036837 328.65090446c25.30822371 25.72894777 25.30822371 67.7690789 0 93.53038962L455.80085703 912.85377593z m-91.18403926-656.39563037l113.96791296 117.54407481a34.06253853 34.06253853 0 0 1 0 47.20210148 31.71618816 31.71618816 0 0 1-45.58392888 0l-113.96791296-117.56025629-182.33571556 187.06078037H775.76217259L455.81703851 162.08630557l-91.18403926 94.38802147z" fill="#bfbfbf" /></svg>