<?xml version="1.0" standalone="no"?><!DOCTYPE svg PUBLIC "-//W3C//DTD SVG 1.1//EN" "http://www.w3.org/Graphics/SVG/1.1/DTD/svg11.dtd"><svg t="1639748055966" class="icon" viewBox="0 0 1024 1024" version="1.1" xmlns="http://www.w3.org/2000/svg" p-id="1114" width="22" height="22" xmlns:xlink="http://www.w3.org/1999/xlink"><defs><style type="text/css"></style></defs><path d="M798.992 96c70.4 0 127.632 56.4 128.984 126.472l0.024 2.536v573.984c0 70.4-56.4 127.632-126.472 128.984l-2.536 0.024H225.008c-70.4 0-127.632-56.4-128.984-126.472L96 798.992V225.008c0-70.4 56.4-127.632 126.472-128.984l2.536-0.024h573.984z m0 64H225.008a65.008 65.008 0 0 0-64.976 63.024l-0.032 1.984v573.984a65.008 65.008 0 0 0 63.024 64.976l1.984 0.032h573.984a65.008 65.008 0 0 0 64.976-63.024l0.032-1.984V225.008a65.008 65.008 0 0 0-63.024-64.976L798.992 160zM497.248 336v47.056H310.8V476.24h175.2v47.064h-175.2v101.648h194.4V672H256V336h241.248zM677.12 422.12c59.504 0 89.936 31.936 90.856 96.704l0.024 3.056V672h-53.4V526.592c0-40-18.272-59.768-54.808-59.768-13.12 0-24.824 4.704-34.664 14.12-10.648 9.808-17.096 23.84-19.344 41.688l-0.328 3.016V672h-53.408V428.704h53.408v28.24c9.36-11.296 20.136-20.24 31.848-25.888 12.184-6.112 25.296-8.936 39.816-8.936z" fill="#212121" p-id="1115"></path></svg>