<?xml version="1.0" standalone="no"?><!DOCTYPE svg PUBLIC "-//W3C//DTD SVG 1.1//EN" "http://www.w3.org/Graphics/SVG/1.1/DTD/svg11.dtd"><svg t="1647429010825" class="icon" viewBox="0 0 1024 1024" version="1.1" xmlns="http://www.w3.org/2000/svg" p-id="15961" width="20" height="20" xmlns:xlink="http://www.w3.org/1999/xlink"><defs><style type="text/css"></style></defs><path d="M904.533333 938.666667h-170.666666c-25.6 0-42.666667-17.066667-42.666667-42.666667v-298.666667c0-25.6 17.066667-42.666667 42.666667-42.666666h170.666666c25.6 0 42.666667 17.066667 42.666667 42.666666v298.666667c0 25.6-17.066667 42.666667-42.666667 42.666667z m0-426.666667h-469.333333c-25.6 0-42.666667-17.066667-42.666667-42.666667V128c0-25.6 17.066667-42.666667 42.666667-42.666667h469.333333c25.6 0 42.666667 17.066667 42.666667 42.666667v341.333333c0 25.6-17.066667 42.666667-42.666667 42.666667z m-597.333333 426.666667h-170.666667c-25.6 0-42.666667-17.066667-42.666666-42.666667V128c0-25.6 17.066667-42.666667 42.666666-42.666667h170.666667c25.6 0 42.666667 17.066667 42.666667 42.666667v768c0 25.6-17.066667 42.666667-42.666667 42.666667z m128-384h170.666667c25.6 0 42.666667 17.066667 42.666666 42.666666v298.666667c0 25.6-17.066667 42.666667-42.666666 42.666667h-170.666667c-25.6 0-42.666667-17.066667-42.666667-42.666667v-298.666667c0-25.6 21.333333-42.666667 42.666667-42.666666z" p-id="15962" fill="#bfbfbf"></path></svg>