<?xml version="1.0" standalone="no"?><!DOCTYPE svg PUBLIC "-//W3C//DTD SVG 1.1//EN" "http://www.w3.org/Graphics/SVG/1.1/DTD/svg11.dtd"><svg t="1660817141618" class="icon" viewBox="0 0 1024 1024" version="1.1" xmlns="http://www.w3.org/2000/svg" p-id="1346" width="18" height="18" xmlns:xlink="http://www.w3.org/1999/xlink"><defs><style type="text/css"></style></defs><path d="M859.25 210.875h-47.8125c-18.65625 0-33.75 15.09375-33.75 33.75s15.09375 33.75 33.75 33.75h47.8125c2.0625 0 3.75 1.6875 3.75 3.75v464.71875c0 2.0625-1.6875 3.75-3.75 3.75H603.96875c-9.9375 0-19.40625 4.40625-25.875 12l-67.3125 80.0625-64.40625-79.59375c-6.375-7.875-16.03125-12.46875-26.25-12.46875H165.03125c-2.0625 0-3.75-1.6875-3.75-3.75V282.125c0-2.0625 1.6875-3.75 3.75-3.75h47.53125c18.65625 0 33.75-15.09375 33.75-33.75s-15.09375-33.75-33.75-33.75h-47.53125c-39.28125 0-71.25 31.96875-71.25 71.25v464.71875c0 39.28125 31.96875 71.25 71.25 71.25h239.0625l80.0625 98.8125c6.375 7.78125 15.84375 12.375 25.875 12.46875h0.28125c9.9375 0 19.40625-4.40625 25.875-12l83.53125-99.28125h239.53125c39.28125 0 71.25-31.96875 71.25-71.25V282.125c0-39.28125-31.96875-71.25-71.25-71.25z" fill="#ffffff" p-id="1347"></path><path d="M359.09375 307.53125c18.65625 0 33.75-15.09375 33.75-33.75 0-62.71875 53.625-113.71875 119.4375-113.71875 32.90625 0 63.28125 11.25 85.59375 31.59375 21.84375 19.875 33.84375 47.0625 33.84375 76.5 0 60.75-31.40625 80.8125-71.25 106.3125-36.46875 23.34375-81.9375 52.40625-81.9375 117.28125 0 18.65625 15.09375 33.75 33.75 33.75s33.75-15.09375 33.75-33.75c0-25.5 13.96875-36.75 50.8125-60.375 43.21875-27.65625 102.375-65.4375 102.375-163.125 0-98.4375-82.125-175.59375-186.9375-175.59375-103.125 0-186.9375 81.28125-186.9375 181.21875 0 18.5625 15.09375 33.65625 33.75 33.65625zM474.78125 596.46875a37.5 37.5 0 1 0 75 0 37.5 37.5 0 1 0-75 0z" fill="#ffffff" p-id="1348"></path></svg>