<?xml version="1.0" standalone="no"?><!DOCTYPE svg PUBLIC "-//W3C//DTD SVG 1.1//EN" "http://www.w3.org/Graphics/SVG/1.1/DTD/svg11.dtd"><svg t="1647424886933" class="icon" viewBox="0 0 1024 1024" version="1.1" xmlns="http://www.w3.org/2000/svg" p-id="34669" width="20" height="20" xmlns:xlink="http://www.w3.org/1999/xlink"><defs><style type="text/css"></style></defs><path d="M44.032 820.224s-9.216 61.44 30.208 100.864c31.744 31.744 90.112 25.088 90.112 25.088l278.528-292.864-114.688-109.568-284.16 276.48z" p-id="34670" fill="#bfbfbf"></path><path d="M615.936 592.384l-324.608-312.32-6.656-89.088L163.328 112.64l-34.816 34.816-34.816 34.816-34.816 34.304 77.824 121.856 82.944 7.168 327.68 313.856-68.608 70.144L773.12 1024c100.864-26.624 159.744-97.28 192-192.512L670.72 537.088l-54.784 55.296z" p-id="34671" fill="#bfbfbf"></path><path d="M597.504 482.304l49.152-51.2c98.304 42.496 199.168 25.6 267.264-33.792 67.072-58.368 67.072-172.544 67.072-172.544l-53.248-20.992L824.32 308.224 673.28 158.72l104.448-104.96L756.736 0S652.8 0 583.68 68.608c-65.024 63.488-84.992 168.96-39.936 264.192l-51.2 50.688 104.96 98.816z" p-id="34672" fill="#bfbfbf"></path></svg>