<?xml version="1.0" standalone="no"?><!DOCTYPE svg PUBLIC "-//W3C//DTD SVG 1.1//EN" "http://www.w3.org/Graphics/SVG/1.1/DTD/svg11.dtd"><svg class="icon" width="20px" height="18.25px" viewBox="0 0 1122 1024" version="1.1" xmlns="http://www.w3.org/2000/svg"><path d="M198.89067826 531.45293194l270.31540511 179.56821674a156.47061333 156.47061333 0 0 0 173.06062278 0l270.31540392-179.49748225 123.72044459 82.59637363c10.01168212 10.01168212 20.02336313 25.10537955 20.02336316 40.19363726 0 15.01752208-5.00584107 30.03504525-20.02336316 40.1174619l-412.5574599 267.09969579a125.14602098 125.14602098 0 0 1-136.01740114 0L75.17567568 694.50187374c-10.01168212-10.01168212-20.02336313-25.02920419-20.02336315-40.18819642 0-15.01752208 10.01168212-30.10577978 20.02336315-40.19363726l123.71500258-82.6671081" fill="#bfbfbf" /><path d="M75.17567568 393.36245982C65.16399354 383.35077883 55.15231253 368.26252113 55.15231253 353.17426455c0-15.01752208 10.01168212-30.03504525 25.02920421-40.11746189l407.75838151-264.59677469a125.14602098 125.14602098 0 0 1 135.81063738-0.42985018l412.54657705 264.95589036c10.01168212 10.01168212 20.02336313 25.02920419 20.02336428 40.1174619 0 15.01752208-10.01168212 30.10577978-20.02336428 40.18819527l-411.05026502 274.74992697a125.14602098 125.14602098 0 0 1-139.02090581 0L240.36842291 503.70860313 75.17567568 393.43319549v-0.07073567" fill="#bfbfbf" /></svg>