<?xml version="1.0" standalone="no"?><!DOCTYPE svg PUBLIC "-//W3C//DTD SVG 1.1//EN" "http://www.w3.org/Graphics/SVG/1.1/DTD/svg11.dtd"><svg t="1675433042400" class="icon" viewBox="0 0 1024 1024" version="1.1" xmlns="http://www.w3.org/2000/svg" p-id="3627" width="20" height="20" xmlns:xlink="http://www.w3.org/1999/xlink"><path d="M1000.10666667 464.09955555c-49.94844445-224.59733333-120.49066667-280.00711111-163.38488889-302.19377777C768 126.29333333 688.24177778 147.00088889 661.84533333 160.42666667c-30.03733333 15.13244445-50.28977778 44.032-80.78222222 56.54755555-35.27111111 14.44977778-83.28533333 18.31822222-119.35288889 0.91022223-28.78577778-13.88088889-54.15822222-43.57688889-88.97422222-56.77511112-44.14577778-16.72533333-117.76-40.04977778-190.464 11.03644445C164.97777778 184.32 42.21155555 285.12711111 5.46133333 600.29155555c-22.75555555 194.33244445 85.90222222 256.79644445 81.92 253.952 27.98933333 19.68355555 90.56711111 52.79288889 175.44533334 0.79644445 56.66133333-34.70222222 102.74133333-103.424 102.74133333-103.424s20.48-38.22933333 47.78666667-54.38577778c19.22844445-11.49155555 48.128-2.73066667 48.128-2.73066667h102.05866666s32.42666667-3.98222222 55.06844445 5.80266667c22.07288889 9.44355555 34.58844445 32.768 34.58844444 32.768s67.24266667 85.21955555 131.64088889 128.56888889c27.42044445 18.432 137.67111111 39.70844445 194.67377778-28.44444444 36.97777778-44.48711111 62.35022222-181.58933333 20.59377778-369.09511112z m-544.99555556-19.9111111c0 17.06666667-13.88088889 30.83377778-30.94755556 30.83377777h-77.2551111v77.36888889c0 17.06666667-13.88088889 30.94755555-30.94755556 30.94755556h-23.21066667c-17.06666667 0-30.94755555-13.76711111-30.94755555-30.94755556v-77.36888889h-77.25511112c-17.06666667 0-30.94755555-13.76711111-30.94755555-30.83377777V420.97777778c0-17.06666667 13.88088889-30.94755555 30.94755555-30.94755556h77.25511112v-77.25511111c0-17.06666667 13.88088889-30.94755555 30.94755555-30.94755556h23.21066667c17.06666667 0 30.94755555 13.88088889 30.94755556 30.94755556v77.25511111h77.2551111c17.06666667 0 30.94755555 13.76711111 30.94755556 30.94755556v23.21066667z m217.77066667 108.20266666c-31.97155555 0-57.91288889-25.94133333-57.91288889-58.02666666 0-31.97155555 25.94133333-57.91288889 57.91288889-57.9128889 31.97155555 0 57.91288889 25.94133333 57.91288889 57.9128889 0 32.08533333-25.94133333 58.02666667-57.91288889 58.02666666z m106.26844444-128.79644444c-31.63022222 0-57.344-25.71377778-57.344-57.344s25.71377778-57.23022222 57.344-57.23022222c31.63022222 0 57.344 25.71377778 57.344 57.23022222-0.11377778 31.63022222-25.71377778 57.344-57.344 57.344z" fill="#bfbfbf" p-id="3628"></path></svg>