<?xml version="1.0" standalone="no"?><!DOCTYPE svg PUBLIC "-//W3C//DTD SVG 1.1//EN" "http://www.w3.org/Graphics/SVG/1.1/DTD/svg11.dtd"><svg t="1647431487148" class="icon" viewBox="0 0 1024 1024" version="1.1" xmlns="http://www.w3.org/2000/svg" p-id="1435" width="20" height="20" xmlns:xlink="http://www.w3.org/1999/xlink"><defs><style type="text/css"></style></defs><path d="M873.22927409 1009.1026963H417.57251509a62.13783703 62.13783703 0 0 1-61.51645867-53.25212635 10.31488095 10.31488095 0 0 0-10.25274311-8.8857107H169.02116694a82.82973677 82.82973677 0 0 1-82.89187461-82.82973676v-807.79188148a41.4459373 41.4459373 0 0 1 82.89187461 0V263.44865185c0 11.43336202 9.25853772 20.69189973 20.69189973 20.69189973h156.09024664c5.15744048 0 9.50708907-3.72827022 10.25274311-8.82357286a62.13783703 62.13783703 0 0 1 61.51645867-53.31426417H873.22927409a62.13783703 62.13783703 0 0 1 62.13783703 62.13783703v82.89187461a62.13783703 62.13783703 0 0 1-62.13783703 62.13783704H417.57251509a62.13783703 62.13783703 0 0 1-61.51645867-53.31426418 10.31488095 10.31488095 0 0 0-10.25274311-8.82357286H189.71306667A20.69189973 20.69189973 0 0 0 169.02116694 387.72432592v165.72161138c0 11.43336202 9.25853772 20.69189973 20.69189973 20.69189973h156.09024664c5.15744048 0 9.50708907-3.72827022 10.25274311-8.88571068a62.13783703 62.13783703 0 0 1 61.51645867-53.25212635H873.22927409a62.13783703 62.13783703 0 0 1 62.13783703 62.13783703v82.82973678a62.13783703 62.13783703 0 0 1-62.13783703 62.13783704H417.57251509a62.13783703 62.13783703 0 0 1-61.51645867-53.25212635 10.31488095 10.31488095 0 0 0-10.25274311-8.88571069H189.71306667a20.69189973 20.69189973 0 0 0-20.69189973 20.75403757v165.65947354c0 11.43336202 9.25853772 20.75403757 20.69189973 20.75403757h156.09024664c5.15744048 0 9.50708907-3.79040805 10.25274311-8.8857107a62.13783703 62.13783703 0 0 1 61.51645867-53.25212634H873.22927409a62.13783703 62.13783703 0 0 1 62.13783703 62.13783704V946.96485925a62.13783703 62.13783703 0 0 1-62.13783703 62.13783705z" p-id="1436" fill="#bfbfbf"></path></svg>