<?xml version="1.0" standalone="no"?><!DOCTYPE svg PUBLIC "-//W3C//DTD SVG 1.1//EN" "http://www.w3.org/Graphics/SVG/1.1/DTD/svg11.dtd"><svg t="1647429475564" class="icon" viewBox="0 0 1024 1024" version="1.1" xmlns="http://www.w3.org/2000/svg" p-id="22021" width="20" height="20" xmlns:xlink="http://www.w3.org/1999/xlink"><defs><style type="text/css"></style></defs><path d="M352.115929 908.682444c0.02 12.579733 3.739921 24.899472 10.719773 35.37925l34.179275 51.378911a63.978644 63.978644 0 0 0 53.278871 28.559395h123.417385a63.978644 63.978644 0 0 0 53.278871-28.559395l34.179276-51.378911a63.976644 63.976644 0 0 0 10.719772-35.37925l0.079999-76.698375H352.015931l0.099998 76.698375zM160 351.994241c0 88.73812 32.899303 169.696404 87.118154 231.555093 33.0393 37.699201 84.718205 116.457532 104.417787 182.896124 0.079998 0.519989 0.139997 1.039978 0.219995 1.559967h320.473209c0.079998-0.519989 0.139997-1.019978 0.219995-1.559967 19.699583-66.438592 71.378487-145.196923 104.417788-182.896124C831.085779 521.690645 863.985082 440.73236 863.985082 351.994241 863.985082 157.218368 705.808434-0.598287 510.892564 0.0017 306.876887 0.621687 160 165.938184 160 351.994241z m351.992541-159.99661c-88.218131 0-159.996609 71.778479-159.99661 159.99661 0 17.679625-14.319697 31.999322-31.999322 31.999322s-31.999322-14.319697-31.999321-31.999322c0-123.517382 100.477871-223.995253 223.995253-223.995253 17.679625 0 31.999322 14.319697 31.999322 31.999321s-14.319697 31.999322-31.999322 31.999322z" p-id="22022" fill="#bfbfbf"></path></svg>