<?xml version="1.0" standalone="no"?><!DOCTYPE svg PUBLIC "-//W3C//DTD SVG 1.1//EN" "http://www.w3.org/Graphics/SVG/1.1/DTD/svg11.dtd"><svg t="1647437578064" class="icon" viewBox="0 0 1024 1024" version="1.1" xmlns="http://www.w3.org/2000/svg" p-id="1676" width="20" height="20" xmlns:xlink="http://www.w3.org/1999/xlink"><defs><style type="text/css"></style></defs><path d="M820 128a160 160 0 1 1-154.56000001 201.6H478.24a231.232 231.232 0 0 1 65.27999999 151.68l0.19200001 9.408v43.2c0 76.096 50.944 140.544 121.28 162.56a160 160 0 1 1 2.752 88.64c-117.312-22.4-206.592-121.408-211.136-241.6l-0.192-9.6v-43.2c0-73.728-54.592-134.912-126.336-147.2a160 160 0 1 1 4.544-97.088h330.88A160.064 160.064 0 0 1 820 128z" p-id="1677" fill="#bfbfbf"></path></svg>