<?xml version="1.0" standalone="no"?><!DOCTYPE svg PUBLIC "-//W3C//DTD SVG 1.1//EN" "http://www.w3.org/Graphics/SVG/1.1/DTD/svg11.dtd"><svg t="1652670143760" class="icon" viewBox="0 0 1024 1024" version="1.1" xmlns="http://www.w3.org/2000/svg" p-id="3338" width="20" height="20" xmlns:xlink="http://www.w3.org/1999/xlink"><defs><style type="text/css"></style></defs><path d="M987.452352 363.410752C1010.787072 407.81248 1024 458.365248 1024 512 1024 688.37152 880.826112 832 704.212096 832L320 832 320 960 64 768 320 576 320 704 704.182272 704C810.120256 704 896 617.822912 896 512 896 487.258432 891.325504 463.609856 882.811904 441.891072ZM128 512C128 536.741568 132.674496 560.390144 141.188096 582.108928L36.547648 660.589248C13.212928 616.18752 0 565.634752 0 512 0 335.62848 143.173888 192 319.787904 192L704 192 704 64 960 256 704 448 704 320 319.817728 320C213.879744 320 128 406.177088 128 512ZM128 512" p-id="3339" fill="#bfbfbf"></path></svg>