<?xml version="1.0" standalone="no"?><!DOCTYPE svg PUBLIC "-//W3C//DTD SVG 1.1//EN" "http://www.w3.org/Graphics/SVG/1.1/DTD/svg11.dtd"><svg class="icon" width="20px" height="20.00px" viewBox="0 0 1024 1024" version="1.1" xmlns="http://www.w3.org/2000/svg"><path d="M576 0h224c53 0 96 42.98 96 96v416H128V96C128 42.98 170.98 0 224 0h32l64 128 64-128h64l64 128 64-128z m320 576v64c0 70.6-57.4 128-128 128h-128v128c0 70.6-57.4 128-128 128s-128-57.4-128-128v-128H256c-70.7 0-128-57.4-128-128v-64h768zM512 928c17.6 0 32-14.4 32-32s-14.4-32-32-32-32 14.4-32 32 14.4 32 32 32z" fill="#bfbfbf" /></svg>