<?xml version="1.0" standalone="no"?><!DOCTYPE svg PUBLIC "-//W3C//DTD SVG 1.1//EN" "http://www.w3.org/Graphics/SVG/1.1/DTD/svg11.dtd"><svg class="icon" width="20px" height="20.00px" viewBox="0 0 1024 1024" version="1.1" xmlns="http://www.w3.org/2000/svg"><path d="M977.454545 260.654545v430.545455c0 13.963636-2.327273 25.6-9.30909 37.236364-6.981818 11.636364-16.290909 20.945455-27.927273 25.6l-393.309091 214.109091c-11.636364 6.981818-23.272727 9.309091-34.909091 9.30909s-23.272727-2.327273-34.909091-9.30909L83.781818 754.036364c-11.636364-6.981818-20.945455-13.963636-27.927273-25.6-6.981818-11.636364-9.309091-23.272727-9.30909-37.236364V260.654545c0-13.963636 4.654545-27.927273 11.636363-41.890909s20.945455-18.618182 34.909091-25.6l393.309091-144.290909c9.309091 0 16.290909-2.327273 25.6-2.327272 9.309091 0 16.290909 2.327273 25.6 4.654545L930.909091 193.163636c13.963636 4.654545 25.6 13.963636 34.909091 25.6 6.981818 13.963636 11.636364 27.927273 11.636363 41.890909z m-465.454545 141.963637l390.981818-141.963637L512 118.690909 121.018182 260.654545 512 402.618182z m34.909091 484.072727l358.4-195.490909V335.127273L546.909091 465.454545v421.236364z" fill="#bfbfbf" /></svg>