<?xml version="1.0" standalone="no"?><!DOCTYPE svg PUBLIC "-//W3C//DTD SVG 1.1//EN" "http://www.w3.org/Graphics/SVG/1.1/DTD/svg11.dtd"><svg t="1647435863865" class="icon" viewBox="0 0 1024 1024" version="1.1" xmlns="http://www.w3.org/2000/svg" p-id="1492" width="20" height="20" xmlns:xlink="http://www.w3.org/1999/xlink"><defs><style type="text/css"></style></defs><path d="M31.9488 391.85066667c0 66.08213333 53.52106667 120.14933333 120.14933333 120.14933333s120.14933333-53.52106667 120.14933334-120.14933333-53.52106667-120.14933333-120.14933334-120.14933334-120.14933333 54.0672-120.14933333 120.14933334z m672.29013333 480.0512c0 66.08213333 53.52106667 120.14933333 120.14933334 120.14933333s120.14933333-53.52106667 120.14933333-120.14933333-53.52106667-120.14933333-120.14933333-120.14933334-120.14933333 54.0672-120.14933334 120.14933334z m47.5136-719.80373334c0 66.08213333 53.52106667 120.14933333 120.14933334 120.14933334 66.08213333 0 120.14933333-53.52106667 120.14933333-120.14933334s-53.52106667-120.14933333-120.14933333-120.14933333c-66.08213333 0-120.14933333 53.52106667-120.14933334 120.14933333zM319.76106667 512c0 132.7104 107.58826667 239.75253333 239.75253333 239.75253333s239.75253333-107.58826667 239.75253333-239.75253333c0-132.7104-107.58826667-239.75253333-239.75253333-239.75253333S319.76106667 379.2896 319.76106667 512z" p-id="1493" fill="#bfbfbf"></path><path d="M622.31893333 651.81013333l197.70026667 253.952 37.6832-29.4912-197.70026667-253.952-37.6832 29.4912zM193.60426667 431.17226667l189.50826666 63.35146666 15.29173334-45.32906666-189.50826667-63.35146667-15.29173333 45.32906667z m649.35253333-288.90453334L670.37866667 372.736l38.22933333 28.94506667 172.57813333-230.46826667-38.22933333-28.94506667z" p-id="1494" fill="#bfbfbf"></path></svg>