<?xml version="1.0" standalone="no"?><!DOCTYPE svg PUBLIC "-//W3C//DTD SVG 1.1//EN" "http://www.w3.org/Graphics/SVG/1.1/DTD/svg11.dtd"><svg class="icon" width="20px" height="20.00px" viewBox="0 0 1024 1024" version="1.1" xmlns="http://www.w3.org/2000/svg"><path d="M512 0c282.784 0 512 229.216 512 512s-229.216 512-512 512S0 794.784 0 512 229.216 0 512 0z m0 42.656C252.8 42.656 42.656 252.8 42.656 512S252.8 981.344 512 981.344 981.344 771.2 981.344 512 771.2 42.656 512 42.656z" fill="#bfbfbf" /><path d="M512 512m-256 0a256 256 0 1 0 512 0 256 256 0 1 0-512 0Z" fill="#bfbfbf" /></svg>