<?xml version="1.0" standalone="no"?><!DOCTYPE svg PUBLIC "-//W3C//DTD SVG 1.1//EN" "http://www.w3.org/Graphics/SVG/1.1/DTD/svg11.dtd"><svg t="1647428159891" class="icon" viewBox="0 0 1024 1024" version="1.1" xmlns="http://www.w3.org/2000/svg" p-id="27928" width="20" height="20" xmlns:xlink="http://www.w3.org/1999/xlink"><defs><style type="text/css"></style></defs><path d="M177.6062 471.711909h118.086696V295.21674h177.130044V176.495169H295.692896V0H177.6062v176.495169H0.529062V295.21674h177.077138v176.495169z m394.204288-295.21674V295.21674h452.030793V176.495169zM389.654353 550.224748l-153.110618 153.428055-152.634461-152.79318L0.42325 634.345647l152.634461 152.634461L0 940.03782l83.909274 83.909274 153.110618-153.057711 152.634461 152.634461 83.486024-83.486024-152.634461-152.634462 153.057711-153.057711z m412.668561 350.662465a58.673004 58.673004 0 1 0 58.673004 58.673004 58.673004 58.673004 0 0 0-58.514285-58.461379zM571.387238 826.553965h452.612762V707.885301H571.387238z m289.661587-237.072797a58.196848 58.196848 0 1 0-58.196849 58.72591 58.567192 58.567192 0 0 0 58.03813-58.72591z" p-id="27929" fill="#bfbfbf"></path></svg>