<?xml version="1.0" standalone="no"?><!DOCTYPE svg PUBLIC "-//W3C//DTD SVG 1.1//EN" "http://www.w3.org/Graphics/SVG/1.1/DTD/svg11.dtd"><svg t="1647438658423" class="icon" viewBox="0 0 1024 1024" version="1.1" xmlns="http://www.w3.org/2000/svg" p-id="36353" width="20" height="20" xmlns:xlink="http://www.w3.org/1999/xlink"><defs><style type="text/css"></style></defs><path d="M365.151541 1023.265072c-85.766124 0-146.233569-16.058182-181.399885-48.174546-35.168766-32.116364-52.750699-85.496651-52.750699-160.138411v-143.720115c0-72.128306-29.784191-108.372517-89.355024-108.732632v-102.811559c59.570833 0 89.355024-37.498488 89.355024-112.497914V213.158584c0-76.077321 17.851407-130.621244 53.55667-163.63667C220.26534 16.506488 280.460861 0 365.151541 0v104.9649c-61.724172 0-92.583809 34.269703-92.583809 102.80911v129.188134c0 91.508364-29.784191 149.102239-89.355024 172.786526v2.692287c59.570833 23.684287 89.355024 81.995943 89.355024 174.937416v124.881455c0 38.39755 7.177799 65.670737 21.530947 81.81956 14.355598 16.148823 38.037435 24.223234 71.052862 24.223234V1023.265072z m292.503885 0c85.766124 0 146.23112-16.058182 181.399885-48.174546 35.166316-32.116364 52.750699-85.496651 52.750699-160.138411v-143.720115c0-72.128306 29.784191-108.372517 89.355023-108.732632v-102.811559c-59.570833 0-89.355024-37.498488-89.355023-112.497914V213.158584c0-76.077321-17.851407-130.621244-53.55912-163.63667C802.541627 16.506488 742.346105 0 657.655426 0v104.9649c61.721722 0 92.583809 34.269703 92.583808 102.80911v129.188134c0 91.508364 29.784191 149.102239 89.355024 172.786526v2.692287c-59.570833 23.684287-89.355024 81.995943-89.355024 174.937416v124.881455c0 38.39755-7.177799 65.670737-21.533397 81.81956-14.350699 16.148823-38.034986 24.223234-71.050411 24.223234V1023.265072z" fill="#bfbfbf" p-id="36354"></path></svg>