<?xml version="1.0" standalone="no"?><!DOCTYPE svg PUBLIC "-//W3C//DTD SVG 1.1//EN" "http://www.w3.org/Graphics/SVG/1.1/DTD/svg11.dtd"><svg t="1646101195282" class="icon" viewBox="0 0 1024 1024" version="1.1" xmlns="http://www.w3.org/2000/svg" p-id="1194" width="22" height="22" xmlns:xlink="http://www.w3.org/1999/xlink"><defs><style type="text/css"></style></defs><path d="M913.61431666 402.77333333c5.38851555 0 10.77703111 0.53399666 16.06845667 1.55344555l7.86432 1.94180779 7.62159446 2.62144a84.95407445 84.95407445 0 0 1 49.75881443 103.49833443l-2.42725888 6.89341668-124.95530667 312.63099221a109.22666667 109.22666667 0 0 1-93.15821112 68.35162112l-8.49540665 0.33981668H179.12566557c-1.6990811 0-3.39816334 0-5.04870002-0.09709113L135.72627001 900.3614811a109.32375666 109.32375666 0 0 1-108.93539556-101.75070777L26.54814777 791.13481443V233.25354667a109.22666667 109.22666667 0 0 1 101.55652778-108.98394112l7.4759589-0.24272555L327.72247666 123.6385189c22.42787555 0 44.22466333 6.79632555 62.52619889 19.51516444l7.62159446 5.82542223L512.97090333 245.0014811h229.57018112a109.22666667 109.22666667 0 0 1 108.20721777 94.12911445l0.77672335 7.67013888 0.24272554 7.4759589v48.49664h61.79802112z m-632.93212445 72.81777778a36.40888889 36.40888889 0 0 0-32.18545778 19.41807446l-2.03889777 4.56324664L144.85276445 778.9985189a36.40888889 36.40888889 0 0 0 30.00092444 48.54518443l591.28035556 0.2912711a36.40888889 36.40888889 0 0 0 9.61194666-1.31072l4.36906667-1.55344554a36.40888889 36.40888889 0 0 0 17.03936-14.85482667l2.62144-5.29142556 123.69313223-312.53390223a12.13629667 12.13629667 0 0 0-6.79632668-15.77718442l-2.18453334-0.63108779-2.28162332-0.19418112H280.63364779z m47.18592-279.13481444l-192.1418422 0.38836111a36.40888889 36.40888889 0 0 0-36.02052779 31.45728l-0.33981667 4.95160889-0.04854443 457.73255111 78.69174443-216.2688A109.22666667 109.22666667 0 0 1 272.18678557 403.16169443l8.54395221-0.33981553 498.26778112-0.04854557 0.04854443-48.54518556a36.40888889 36.40888889 0 0 0-31.45728-36.02052665L742.58963001 317.81925888h-255.93021668l-135.44106666-112.91609998a36.40888889 36.40888889 0 0 0-18.30153444-8.10704669l-5.04870002-0.33981554z" p-id="1195" fill="#212121"></path></svg>