<?xml version="1.0" standalone="no"?><!DOCTYPE svg PUBLIC "-//W3C//DTD SVG 1.1//EN" "http://www.w3.org/Graphics/SVG/1.1/DTD/svg11.dtd"><svg class="icon" width="20px" height="20.00px" viewBox="0 0 1024 1024" version="1.1" xmlns="http://www.w3.org/2000/svg"><path d="M352 288C352 342.016 396.928 384 447.872 384S543.808 339.008 543.808 288c0-53.952-44.992-95.936-95.936-95.936-50.944-3.008-95.872 41.984-95.872 95.936zM704 864.128c0 53.248 42.688 95.872 96 95.872s96-42.624 96-95.872c0-53.312-42.688-95.936-96-95.936-53.312-3.52-96 39.04-96 95.936zM64 640c0 107.776 87.552 192 192 192 107.776 0 192-87.552 192-192 0-107.776-87.552-192-192-192s-192 84.224-192 192zM704 192c0 71.424 56.576 128 128 128s128-56.576 128-128-56.576-128-128-128-128 56.576-128 128zM512 640c0 35.2 28.8 64 64 64s64-28.8 64-64-28.8-64-64-64-64 28.8-64 64zM384 864c0 19.2 12.8 32 32 32s32-12.8 32-32-12.8-32-32-32-32 12.8-32 32zM768 544c0 19.2 12.8 32 32 32s32-12.8 32-32-12.8-32-32-32-32 12.8-32 32zM192 224c0 19.2 12.8 32 32 32s32-12.8 32-32-12.8-32-32-32-32 16-32 32z" fill="#bfbfbf" /></svg>