<?xml version="1.0" standalone="no"?><!DOCTYPE svg PUBLIC "-//W3C//DTD SVG 1.1//EN" "http://www.w3.org/Graphics/SVG/1.1/DTD/svg11.dtd"><svg t="1734087645478" class="icon" viewBox="0 0 1024 1024" version="1.1" xmlns="http://www.w3.org/2000/svg" p-id="3989" width="20" height="20" xmlns:xlink="http://www.w3.org/1999/xlink"><path d="M955.6992 455.943314a58.528914 58.528914 0 0 0-32.768-99.210971l-244.706743-36.571429a9.362286 9.362286 0 0 1-7.007086-4.637257L565.130971 85.240686a58.543543 58.543543 0 0 0-106.305828 0L352.782629 315.538286a9.362286 9.362286 0 0 1-7.007086 4.622628l-244.721372 36.571429a58.514286 58.514286 0 0 0-32.768 99.2256l179.317029 179.624228a6.875429 6.875429 0 0 1 2.165029 5.193143l-58.382629 260.7104a58.4704 58.4704 0 0 0 57.109943 71.299657c10.400914 0 20.816457-2.7648 30.120228-8.338285l228.9664-137.435429a10.693486 10.693486 0 0 1 9.172115 0.160914l242.556343 137.962058a58.4704 58.4704 0 0 0 64.804571-4.637258 58.514286 58.514286 0 0 0 20.5824-61.615542l-70.480457-258.706286a7.109486 7.109486 0 0 1 2.135771-4.578743l179.346286-179.653486zM716.565943 651.249371l71.68 263.036343-243.4048-138.4448a69.280914 69.280914 0 0 0-65.682286 0L248.495543 914.285714l58.909257-263.036343a65.243429 65.243429 0 0 0-18.388114-56.992914L109.714286 414.6176l244.706743-36.571429c22.337829-3.335314 41.603657-17.378743 51.214628-37.376L511.985371 109.714286l106.378972 230.955885a67.803429 67.803429 0 0 0 51.214628 37.376l244.706743 36.571429-179.3024 179.624229a65.360457 65.360457 0 0 0-18.417371 57.007542z" fill="#bfbfbf" p-id="3990"></path><path d="M494.548114 292.1472a14.628571 14.628571 0 0 0-19.850971 5.8368l-56.451657 103.424a35.722971 35.722971 0 0 1-27.092115 19.675429l-98.698971 14.7456a14.628571 14.628571 0 0 0 4.3008 28.935314l98.698971-14.7456c21.489371-3.218286 39.848229-16.647314 48.800915-35.269486l56.1152-102.765714a14.628571 14.628571 0 0 0-5.822172-19.836343zM516.637257 222.646857a14.570057 14.570057 0 0 0-19.397486 7.168l-10.605714 23.025372a14.628571 14.628571 0 1 0 26.565486 12.229485l10.605714-23.025371a14.599314 14.599314 0 0 0-7.168-19.397486z" fill="#bfbfbf" p-id="3991"></path></svg>