<?xml version="1.0" standalone="no"?><!DOCTYPE svg PUBLIC "-//W3C//DTD SVG 1.1//EN" "http://www.w3.org/Graphics/SVG/1.1/DTD/svg11.dtd"><svg t="1642332452446" class="icon" viewBox="0 0 1024 1024" version="1.1" xmlns="http://www.w3.org/2000/svg" p-id="1698" width="22" height="22" xmlns:xlink="http://www.w3.org/1999/xlink"><defs><style type="text/css"></style></defs><path d="M949.94747543 334.70003831v-58.5752677c0-61.47503344-49.71026963-130.15805598-115.49352644-130.15805598H543.31746987l-8.69929719-16.15583764a81.52484219 81.52484219 0 0 0-72.90839545-43.91073816H142.65269665A109.61114453 109.61114453 0 0 0 34.36715931 197.16829235v605.55393453a109.52829408 109.52829408 0 0 0 108.28553734 111.10245262h748.96806242a109.52829408 109.52829408 0 0 0 108.20268689-111.10245262V431.22081185c0-35.12859054-19.05560336-70.17433063-49.71026962-96.52077354h-0.16570091z m-83.34755207-29.32905908H627.99062914l-39.76821571-76.05671253h247.22574097c13.2560719 0 32.2288248 24.85513482 32.2288248 46.81050391v29.24620862h-1.07705584z m49.71026962 124.27567408v371.50141504a27.3406483 27.3406483 0 0 1-24.85513481 27.83775099H142.48699575a26.51214381 26.51214381 0 0 1-24.85513481-27.83775099V195.67698427a27.3406483 27.3406483 0 0 1 24.85513481-27.75490056h317.48292203l105.30292117 198.84107852c7.45654045 13.2560719 21.37541595 21.54111683 36.61989863 21.95536909h271.74947397c16.15583763 0 42.66798143 26.3464429 42.66798143 40.92812199z" p-id="1699" fill="#212121"></path></svg>