<?xml version="1.0" standalone="no"?><!DOCTYPE svg PUBLIC "-//W3C//DTD SVG 1.1//EN" "http://www.w3.org/Graphics/SVG/1.1/DTD/svg11.dtd"><svg t="1652670028971" class="icon" viewBox="0 0 1024 1024" version="1.1" xmlns="http://www.w3.org/2000/svg" p-id="1992" width="20" height="20" xmlns:xlink="http://www.w3.org/1999/xlink"><defs><style type="text/css"></style></defs><path d="M118.783 885.98c0 35.689 28.991 64.681 64.681 64.681h656.605c35.689 0 64.681-28.991 64.681-64.681V619.927H118.783V885.98zM302.129 411.921l540.639-183.446c33.89-10.397 53.184-46.286 43.087-80.276l-13.896-46.586c-8.098-27.292-33.59-46.286-61.982-46.286-6.198 0-12.396 0.9-18.495 2.699l-0.4 0.1L139.177 279.36c-33.89 10.397-53.184 46.286-43.087 80.276l13.796 46.686c3.799 12.896 11.497 23.893 21.594 31.891-7.998 10.797-12.696 24.093-12.696 38.389v87.326h179.145l85.554-152.007h-81.354z" p-id="1993" fill="#bfbfbf"></path><path d="M840.069 411.921h-388.37l-88.736 152.007H596.56l85.399-151.731h68.216l-88.576 151.731h243.15v-87.226c0.001-35.69-28.991-64.781-64.68-64.781z" p-id="1994" fill="#bfbfbf"></path></svg>