<?xml version="1.0" standalone="no"?><!DOCTYPE svg PUBLIC "-//W3C//DTD SVG 1.1//EN" "http://www.w3.org/Graphics/SVG/1.1/DTD/svg11.dtd"><svg t="1647434501017" class="icon" viewBox="0 0 1024 1024" version="1.1" xmlns="http://www.w3.org/2000/svg" p-id="1525" width="20" height="20" xmlns:xlink="http://www.w3.org/1999/xlink"><defs><style type="text/css"></style></defs><path d="M900.84693333 614.22933332h3.2768H124.24533333V151.10826666q0-45.8752 22.9376-70.4512t69.90506667-24.576H812.37333333q49.152 0 69.35893334 27.8528t19.11466666 71.54346666v458.752zM820.0192 132.53973332H201.79626667V477.69599999l618.22293333 1.09226667V132.53973332zM566.61333333 546.50879999q0-15.29173333-20.75306666-17.47626667H479.232q-20.75306667 0-20.75306667 17.47626667 0 5.46133333 5.46133334 10.92266667t14.19946666 6.5536l65.536-1.09226667q9.8304 0 16.384-5.46133333t6.5536-10.92266667z m315.66506667 129.97973333q12.01493333 0 16.384 7.64586667t13.1072 21.84533333q4.36906667 7.64586667 16.384 27.30666667t25.66826667 42.05226667 25.66826666 42.05226666 16.384 26.2144q8.73813333 14.19946667 14.7456 26.76053334t-8.192 30.03733333q-28.39893333 33.86026667-49.152 41.50613333T921.6 949.55519999H361.2672q-72.0896 0-129.4336-0.54613333t-93.3888-0.54613334H96.93866667q-8.73813333 0-18.0224-4.36906666t-19.11466667-11.4688T41.7792 917.33333332t-14.7456-15.83786666q-7.64586667-9.8304-9.8304-17.47626667t-0.54613333-13.65333333 6.00746666-11.4688 8.73813334-13.1072q4.36906667-6.5536 14.7456-23.48373334t22.39146666-37.6832l26.2144-41.50613333q12.01493333-20.75306667 20.75306667-34.95253333t14.7456-21.2992 12.56106667-9.28426667 14.19946666-1.6384 19.6608 0.54613333h705.60426667z m53.52106667 202.06933334q0-7.64586667-6.5536-12.56106667t-14.19946667-4.9152h-797.35466667q-7.64586667 0-15.29173333 4.9152t-7.64586667 12.56106667 6.5536 13.1072 14.19946667 5.46133333h798.44693333q7.64586667 0 14.7456-5.46133333t7.09973334-13.1072z" fill="#BFBFBF" p-id="1526"></path></svg>