<?xml version="1.0" standalone="no"?><!DOCTYPE svg PUBLIC "-//W3C//DTD SVG 1.1//EN" "http://www.w3.org/Graphics/SVG/1.1/DTD/svg11.dtd"><svg class="icon" width="20px" height="20.00px" viewBox="0 0 1024 1024" version="1.1" xmlns="http://www.w3.org/2000/svg"><path d="M227.55555555 56.88888889h568.8888889c94.25578667 0 170.66666667 76.41088 170.66666666 170.66666666v568.8888889c0 94.25578667-76.41088 170.66666667-170.66666666 170.66666666H227.55555555c-94.25578667 0-170.66666667-76.41088-170.66666666-170.66666666V227.55555555c0-94.25578667 76.41088-170.66666667 170.66666666-170.66666666z m159.2888889 432.35555556c56.55438222 0 102.4-45.84561778 102.4-102.4s-45.84561778-102.4-102.4-102.4-102.4 45.84561778-102.4 102.4 45.84561778 102.4 102.4 102.4z m-1.28113778 188.41144888a68.26666667 68.26666667 0 0 0-66.47808 6.73109334L159.28888889 796.62421333v2.27555556c0 37.70368 30.56298667 68.26666667 68.26666666 68.26666666h568.8888889c37.70368 0 68.26666667-30.56298667 68.26666666-68.26666666V566.61560889a68.26666667 68.26666667 0 0 0-26.53752889-54.02851556c-29.83936-23.04455111-72.71082667-17.53770667-95.75765333 12.30165334l-145.57184 188.47971555c-19.11466667 24.74894222-52.59719111 33.34599111-81.26919111 20.86684445l-130.01159111-56.57941334z" fill="#bfbfbf" /></svg>