<?xml version="1.0" standalone="no"?><!DOCTYPE svg PUBLIC "-//W3C//DTD SVG 1.1//EN" "http://www.w3.org/Graphics/SVG/1.1/DTD/svg11.dtd"><svg t="1660620207843" class="icon" viewBox="0 0 1024 1024" version="1.1" xmlns="http://www.w3.org/2000/svg" p-id="3094" width="20" height="20" xmlns:xlink="http://www.w3.org/1999/xlink"><defs><style type="text/css"></style></defs><path d="M219.57499971 696.20000029a343.27500029 343.27500029 0 0 0 286.875 153.37499942c188.8875 0 342.03750029-150.93749971 342.03750029-337.12499971 0-165.22499971-120.67499971-302.9625-280.2375-331.65 9.37500029 34.49999971 14.21250029 70.38749971 14.21250029 106.875 0 209.17500029-158.10000029 381.89999971-362.88750058 408.52500029z m-60.93749971-71.40000058h5.77500029c188.8875 0 342-150.90000029 342-337.12499971 0-47.025-9.74999971-92.62500029-28.38750029-134.775L454.36249971 99.50000029l59.10000029 0.97499971C741.3875 104.1875 924.49999971 287.48750029 924.49999971 512.45 924.49999971 740.0375 737.3375 924.49999971 506.44999971 924.49999971c-167.77500029 0-317.28750029-98.325-383.24999971-247.275L99.50000029 623.825l59.13749971 0.97499971z" p-id="3095" fill="#212121"></path></svg>