<?xml version="1.0" standalone="no"?><!DOCTYPE svg PUBLIC "-//W3C//DTD SVG 1.1//EN" "http://www.w3.org/Graphics/SVG/1.1/DTD/svg11.dtd"><svg t="1652670107132" class="icon" viewBox="0 0 1024 1024" version="1.1" xmlns="http://www.w3.org/2000/svg" p-id="3000" width="20" height="20" xmlns:xlink="http://www.w3.org/1999/xlink"><defs><style type="text/css"></style></defs><path d="M0.031998 512.095982a511.904018 511.904018 0 1 1 511.904018 511.904018 511.904018 511.904018 0 0 1-511.904018-511.904018z m127.976004 0a383.928013 383.928013 0 1 0 383.928014-383.928013 384.37593 384.37593 0 0 0-383.928014 383.928013z m383.928014 127.976005a63.988002 63.988002 0 0 1-63.988002-63.988003v-255.952009a63.988002 63.988002 0 1 1 127.976004 0v191.964007h127.976005a63.988002 63.988002 0 1 1 0 127.976005z" fill="#bfbfbf" p-id="3001"></path></svg>