<?xml version="1.0" standalone="no"?><!DOCTYPE svg PUBLIC "-//W3C//DTD SVG 1.1//EN" "http://www.w3.org/Graphics/SVG/1.1/DTD/svg11.dtd"><svg t="1647431511342" class="icon" viewBox="0 0 1024 1024" version="1.1" xmlns="http://www.w3.org/2000/svg" p-id="1435" width="20" height="20" xmlns:xlink="http://www.w3.org/1999/xlink"><defs><style type="text/css"></style></defs><path d="M290.51259258 1015.53493334c-67.72053333 0-125.36794076-44.05475556-145.7569185-104.97896297h-85.80361484c-26.82121483 0-48.54518518-21.72397038-48.54518517-48.54518519s21.72397038-48.54518518 48.54518517-48.54518518h85.80361484c20.38897778-60.92420741 78.03638521-104.97896298 145.75691852-104.97896298s125.36794076 44.05475556 145.75691851 104.97896298h530.72023705c26.82121483 0 48.54518518 21.72397038 48.54518516 48.54518518s-21.72397038 48.54518518-48.54518519 48.54518519H436.26951111c-20.38897778 60.80284446-78.03638521 104.97896298-145.75691853 104.97896297z m2e-8-210.07928889c-31.19028149 0-56.43377779 25.36485926-56.43377778 56.43377778 0 31.19028149 25.36485926 56.43377779 56.43377778 56.43377777 31.19028149 0 56.43377779-25.36485926 56.43377777-56.43377779 0.12136298-31.06891852-25.2434963-56.43377779-56.43377779-56.43377776z m446.13025184-139.93149632c-67.72053333 0-125.36794076-44.05475556-145.75691852-104.97896295H59.07342222c-26.82121483 0-48.54518518-21.72397038-48.54518519-48.54518518s21.72397038-48.54518518 48.54518519-48.54518518H590.88592592c20.38897778-60.92420741 78.03638521-104.97896298 145.75691854-104.97896298s125.36794076 44.05475556 145.75691851 104.97896298h84.58998519c26.82121483 0 48.54518518 21.72397038 48.54518518 48.54518518s-21.72397038 48.54518518-48.54518518 48.54518518h-84.58998519c-20.38897778 60.92420741-78.03638521 104.97896298-145.75691853 104.97896298z m2e-8-210.07928888c-31.19028149 0-56.43377779 25.36485926-56.43377779 56.4337778 0 31.19028149 25.36485926 56.43377779 56.43377779 56.43377777 31.19028149 0 56.43377779-25.36485926 56.43377776-56.4337778s-25.36485926-56.43377779-56.43377778-56.43377777zM290.51259258 317.21244444c-67.72053333 0-125.36794076-44.05475556-145.7569185-104.97896296h-85.80361484c-26.82121483 0-48.54518518-21.72397038-48.54518517-48.54518518s21.72397038-48.54518518 48.54518517-48.54518519h85.80361484c20.38897778-60.92420741 78.03638521-104.97896298 145.75691852-104.97896298s125.36794076 44.05475556 145.75691851 104.97896298h530.72023705c26.82121483 0 48.54518518 21.72397038 48.54518516 48.54518519s-21.72397038 48.54518518-48.54518519 48.54518518H436.26951111c-20.38897778 60.92420741-78.03638521 104.97896298-145.75691853 104.97896298z m2e-8-210.07928889c-31.19028149 0-56.43377779 25.36485926-56.43377778 56.43377779 0 31.19028149 25.36485926 56.43377779 56.43377778 56.43377777 31.19028149 0 56.43377779-25.36485926 56.43377777-56.43377779 0.12136298-31.06891852-25.2434963-56.43377779-56.43377779-56.43377777z" p-id="1436" fill="#bfbfbf"></path></svg>