<svg version="1.2" xmlns="http://www.w3.org/2000/svg" viewBox="0 0 1024 1024" width="20" height="20"><style>.a{fill:#bfbfbf}</style><path class="a" d="m840.6 724.1h159.4v71.6h-159.4v159.5h-71.6v-159.5h-159.5v-71.6h159.5v-159.4h71.6zm-511.6-478.6h161.8v173.2c0 42-34.3 76-76.5 76h-417.7c89.1-123.4 209.1-249.2 332.4-249.2zm451.2 84.7v160.7h-174.3c-42.3 0-76.6-34-76.6-76v-415c124.3 88.5 250.9 207.7 250.9 330.3zm-536.4 363.5v-160.7h174.3c42.3 0 76.6 34 76.6 76v414.9c-124.3-88.4-250.9-207.6-250.9-330.2z"/></svg>